# xmcd
#
# Track frame offsets:
# 150
# 9288
# 27671
# 40896
# 53650
# 68439
# 91164
# 97831
# 106228
# 119647
# 133672
# 150960
# 159922
# 179449
#
# Disc length: 2414 seconds
#
#
# Revision: 0
# Processed by: cddbd v1.5.1PL0 Copyright (c) Steve Scherf et al.
# Submitted via: FreeRIP 2.12 
#
DISCID=a0096c0e
DTITLE=De tal palo - Musica Latinoamericana
DYEAR=2005
DGENRE=Folklore
TTITLE0=Pacundina
TTITLE1=Mi samba, mi negra
TTITLE2=Atahualpa
TTITLE3=La mula
TTITLE4=Mi mamá, abreme la puerta
TTITLE5=Taita guaranguito
TTITLE6=Golpe tuyero
TTITLE7=La muerte de Antonio
TTITLE8=El curanto
TTITLE9=El firulete
TTITLE10=Ritmo, color y sabor
TTITLE11=Piel Canela
TTITLE12=Guacharrum
TTITLE13=Bonus Track
EXTD=
EXTT0=
EXTT1=
EXTT2=
EXTT3=
EXTT4=
EXTT5=
EXTT6=
EXTT7=
EXTT8=
EXTT9=
EXTT10=
EXTT11=
EXTT12=
EXTT13=
PLAYORDER=
